<?xml version="1.0" standalone="no"?>
<!DOCTYPE svg PUBLIC "-//W3C//DTD SVG 20010904//EN"
 "http://www.w3.org/TR/2001/REC-SVG-20010904/DTD/svg10.dtd">
<svg version="1.0" xmlns="http://www.w3.org/2000/svg"
 width="474.000000pt" height="266.000000pt" viewBox="0 0 474.000000 266.000000"
 preserveAspectRatio="xMidYMid meet">

<g transform="translate(0.000000,266.000000) scale(0.100000,-0.100000)"
fill="#000000" stroke="none">
<path d="M2444 2458 l-282 -162 27 -46 c14 -26 192 -335 396 -688 l370 -642
381 0 382 0 -221 383 c-122 210 -343 593 -492 850 -148 257 -272 467 -275 467
-3 0 -132 -73 -286 -162z"/>
<path d="M1800 1864 c-146 -85 -271 -158 -277 -162 -9 -5 53 -121 212 -394
l225 -387 0 -80 0 -81 80 0 80 0 0 80 0 80 298 2 298 3 -316 547 c-173 301
-319 547 -325 547 -5 0 -129 -70 -275 -155z"/>
<path d="M1200 1319 c-113 -66 -240 -139 -282 -164 l-77 -45 56 -95 55 -95
380 0 380 0 -34 59 c-175 307 -264 460 -268 460 -3 0 -97 -54 -210 -120z"/>
<path d="M1720 784 c0 -126 -1 -136 -17 -129 -103 43 -120 47 -193 43 -160 -9
-277 -104 -316 -257 -68 -266 205 -495 464 -389 58 24 62 25 62 7 0 -17 8 -19
80 -19 l80 0 0 440 0 440 -80 0 -80 0 0 -136z m-85 -268 c98 -75 110 -186 29
-276 -42 -46 -89 -64 -155 -58 -140 14 -214 169 -136 286 55 84 183 108 262
48z"/>
<path d="M2727 913 c-4 -3 -7 -64 -7 -134 l0 -128 -47 22 c-39 18 -66 22 -143
22 -89 0 -99 -2 -158 -34 -70 -38 -120 -90 -154 -160 -32 -65 -33 -205 -1
-273 80 -175 295 -253 465 -169 37 18 38 18 38 0 0 -17 8 -19 80 -19 l80 0 0
440 0 440 -73 0 c-41 0 -77 -3 -80 -7z m-94 -392 c63 -41 91 -95 85 -172 -12
-170 -229 -231 -334 -93 -52 68 -41 190 22 245 66 58 154 65 227 20z"/>
<path d="M668 686 c-101 -36 -163 -92 -207 -186 -22 -46 -26 -69 -26 -140 0
-72 4 -93 28 -141 49 -102 158 -179 274 -194 55 -7 159 14 200 40 29 20 33 19
33 -5 0 -18 7 -20 80 -20 l80 0 -2 328 -3 327 -77 3 -78 3 0 -27 c0 -21 -3
-25 -17 -19 -105 46 -211 57 -285 31z m192 -156 c21 -11 50 -34 63 -52 27 -35
50 -107 43 -129 -2 -8 -7 -26 -10 -41 -15 -66 -102 -128 -181 -128 -99 0 -176
71 -183 169 -11 149 136 248 268 181z"/>
<path d="M3170 684 c-194 -70 -284 -287 -196 -468 78 -160 281 -236 439 -163
54 25 57 25 57 6 0 -17 7 -19 80 -19 l80 0 0 330 0 331 -77 -3 c-71 -3 -78 -5
-81 -25 l-3 -21 -47 21 c-63 28 -190 33 -252 11z m198 -153 c46 -23 67 -46 87
-94 52 -124 -36 -257 -170 -257 -104 0 -185 81 -185 185 0 136 148 227 268
166z"/>
<path d="M3872 685 c-154 -48 -210 -216 -107 -320 38 -37 97 -59 210 -76 39
-6 85 -17 103 -25 29 -12 33 -18 30 -45 -4 -46 -42 -71 -106 -71 -67 1 -107
23 -123 67 l-13 35 -83 0 c-79 0 -83 -1 -83 -22 0 -36 40 -106 78 -138 92 -75
276 -89 399 -29 108 52 148 204 76 289 -37 45 -92 69 -207 91 -129 25 -155 35
-163 67 -20 82 180 94 208 12 11 -30 11 -30 90 -30 90 0 93 4 60 76 -24 52
-83 101 -145 119 -61 18 -166 18 -224 0z"/>
<path d="M1960 365 l0 -325 80 0 80 0 0 325 0 325 -80 0 -80 0 0 -325z"/>
</g>
</svg>
